<?xml version="1.0" standalone="no"?>
<!DOCTYPE svg PUBLIC "-//W3C//DTD SVG 20010904//EN"
 "http://www.w3.org/TR/2001/REC-SVG-20010904/DTD/svg10.dtd">
<svg version="1.0" xmlns="http://www.w3.org/2000/svg"
 width="892.000000pt" height="892.000000pt" viewBox="0 0 892.000000 892.000000"
 preserveAspectRatio="xMidYMid meet">
<metadata>
Created by potrace 1.14, written by Peter Selinger 2001-2017
</metadata>
<g transform="translate(0.000000,892.000000) scale(0.100000,-0.100000)"
fill="#000000" stroke="none">
<path d="M4547 6972 c-10 -2 -14 -8 -10 -15 5 -9 3 -9 -8 0 -15 12 -121 15
-114 3 3 -4 -7 -6 -20 -4 -14 1 -25 -2 -25 -7 0 -4 -6 -6 -14 -3 -15 6 -61
-20 -84 -46 -12 -13 -13 -13 -7 0 4 8 -1 6 -9 -4 -9 -11 -16 -17 -16 -13 0 5
-6 2 -14 -5 -8 -7 -12 -16 -9 -20 2 -5 -1 -8 -7 -8 -6 0 -18 -7 -26 -15 -9 -8
-13 -15 -10 -15 3 0 -5 -11 -17 -23 -12 -13 -26 -23 -32 -23 -5 1 -11 -9 -13
-22 -2 -13 -10 -26 -17 -28 -8 -3 -11 -12 -8 -20 3 -8 0 -14 -7 -14 -6 0 -9
-4 -6 -9 3 -5 -1 -12 -10 -15 -13 -5 -14 -9 -4 -21 10 -12 10 -15 0 -15 -7 0
-10 -8 -7 -20 3 -11 1 -20 -3 -20 -5 0 -7 -9 -5 -20 2 -11 0 -20 -4 -20 -12 0
-8 -43 4 -52 6 -5 6 -8 -2 -8 -8 0 -11 -18 -9 -60 2 -33 0 -58 -4 -55 -5 3 -5
-8 0 -23 4 -16 4 -35 0 -43 -5 -7 -6 -17 -3 -23 4 -5 8 -25 9 -43 2 -30 0 -32
-14 -21 -15 11 -15 11 -6 -2 6 -8 11 -27 10 -42 -1 -16 2 -28 7 -28 5 0 3 -8
-4 -17 -8 -9 -9 -14 -4 -11 7 4 10 -12 10 -42 0 -26 -4 -46 -9 -43 -5 4 -6 1
-2 -6 13 -20 16 -72 5 -65 -7 4 -7 -1 0 -15 8 -14 8 -21 1 -21 -5 0 -10 -5
-10 -11 0 -5 4 -8 9 -5 12 8 8 -27 -4 -36 -6 -5 -5 -8 4 -8 10 0 11 -3 2 -14
-10 -11 -8 -17 6 -25 17 -10 17 -10 -2 -11 -11 -1 -15 -4 -8 -6 8 -4 9 -14 3
-35 -6 -19 -5 -29 2 -29 6 0 5 -7 -3 -17 -8 -9 -9 -14 -4 -11 6 4 10 -15 11
-47 0 -30 -3 -52 -8 -49 -5 3 -15 1 -23 -6 -8 -7 -15 -7 -19 -1 -4 6 -18 6
-38 0 -22 -6 -34 -5 -39 2 -4 7 -9 8 -13 1 -3 -6 -20 -8 -37 -5 -24 3 -29 2
-23 -9 6 -10 4 -11 -7 -2 -8 5 -24 9 -36 8 -13 0 -23 4 -23 10 0 6 -4 6 -9 -2
-5 -9 -22 -12 -49 -9 -23 2 -42 0 -42 -5 0 -5 -5 -6 -12 -2 -21 13 -96 10 -91
-4 4 -8 0 -10 -11 -6 -9 3 -14 10 -11 14 3 5 -9 5 -27 -1 -41 -11 -41 -11 -32
2 4 8 1 8 -12 1 -11 -5 -25 -7 -33 -4 -10 3 -11 0 -5 -9 6 -11 5 -12 -7 -3
-15 12 -77 13 -96 1 -6 -4 -14 -4 -17 1 -6 10 -57 9 -74 -2 -7 -4 -12 -4 -12
1 0 4 -16 8 -35 8 -19 0 -35 -4 -35 -9 0 -5 -6 -4 -13 2 -8 7 -18 7 -27 2 -9
-6 -20 -4 -29 3 -12 10 -14 9 -9 -4 4 -9 1 -16 -8 -16 -7 0 -11 4 -9 8 3 4 -2
10 -11 13 -8 3 -12 2 -9 -4 3 -6 -1 -10 -9 -10 -9 0 -16 6 -16 13 0 9 -2 9 -8
1 -4 -7 -28 -11 -59 -9 -32 2 -53 -1 -53 -7 0 -6 -6 -5 -15 2 -8 7 -15 9 -15
4 0 -10 -92 -10 -108 0 -6 3 -13 0 -16 -6 -5 -11 -7 -11 -12 0 -3 6 -11 9 -17
5 -7 -4 -46 -8 -87 -8 -41 0 -81 -4 -87 -8 -7 -5 -13 -4 -13 0 0 5 -9 9 -20
10 -11 1 -18 -3 -14 -8 7 -12 -19 -7 -28 6 -5 6 -8 4 -8 -5 0 -13 -1 -13 -11
0 -8 11 -12 12 -16 3 -2 -7 -9 -13 -14 -13 -6 0 -8 4 -5 8 6 9 -47 7 -63 -3
-6 -3 -11 -2 -11 3 0 10 -36 9 -46 -1 -12 -12 -26 -8 -18 6 6 9 4 9 -7 2 -8
-5 -30 -10 -49 -10 -19 0 -38 -4 -42 -10 -5 -7 -8 -7 -8 1 0 5 -15 9 -32 7
-18 -1 -85 -3 -148 -4 -66 -1 -121 -7 -129 -13 -11 -8 -13 -8 -8 0 4 7 -7 11
-33 11 -24 0 -37 -4 -33 -10 4 -6 1 -7 -8 -1 -24 14 -51 16 -43 2 5 -9 2 -9
-9 1 -14 11 -17 11 -17 0 0 -11 -2 -11 -10 1 -8 12 -10 12 -10 1 0 -9 -4 -10
-12 -4 -17 12 -48 10 -75 -5 -20 -11 -22 -10 -16 5 6 16 5 16 -10 4 -14 -11
-17 -11 -17 0 0 9 -3 10 -8 4 -11 -16 -46 -19 -36 -3 6 10 4 10 -9 -1 -14 -11
-20 -11 -34 0 -9 8 -14 9 -10 3 9 -15 -63 -17 -82 -1 -11 9 -13 9 -8 0 6 -9
-6 -12 -48 -10 -30 2 -55 0 -55 -5 0 -4 -11 -3 -25 2 -13 5 -27 6 -29 1 -3 -5
-18 -6 -32 -3 -21 4 -25 2 -19 -9 7 -12 6 -12 -7 -1 -13 11 -21 11 -39 2 -12
-7 -19 -8 -15 -2 7 12 -32 10 -52 -2 -7 -4 -16 -5 -21 -1 -5 3 -12 1 -16 -5
-4 -6 -11 -8 -16 -5 -5 4 -9 1 -9 -5 0 -7 -7 -10 -15 -6 -8 3 -15 1 -15 -3 0
-5 -16 -18 -35 -30 -19 -11 -35 -24 -34 -28 3 -19 -2 -34 -9 -29 -4 2 -9 -5
-9 -16 -1 -12 -8 -25 -15 -29 -10 -7 -10 -9 2 -9 13 0 13 -1 0 -10 -12 -8 -12
-10 -1 -10 9 0 10 -4 4 -12 -16 -20 -22 -68 -9 -69 6 0 2 -4 -9 -9 -11 -5 -14
-9 -8 -9 13 -1 13 -35 0 -47 -4 -4 -2 -13 4 -21 6 -7 7 -13 2 -13 -11 0 -11
-56 0 -66 4 -4 2 -13 -4 -21 -9 -10 -8 -13 1 -13 10 0 10 -3 1 -14 -9 -11 -9
-16 0 -21 8 -6 7 -10 -2 -16 -11 -7 -11 -9 1 -9 13 0 13 -1 0 -10 -12 -8 -12
-10 -1 -10 10 0 11 -3 2 -14 -9 -11 -9 -16 0 -21 8 -6 7 -10 -2 -16 -12 -7
-12 -9 0 -9 9 0 10 -4 5 -12 -9 -12 -10 -28 -4 -53 6 -25 4 -41 -5 -47 -6 -5
-5 -8 3 -8 9 0 10 -5 3 -18 -6 -11 -6 -24 -1 -32 6 -9 5 -17 -3 -22 -9 -6 -9
-8 1 -8 6 0 12 -5 12 -11 0 -5 -6 -7 -12 -3 -10 6 -10 5 -1 -7 10 -12 10 -18
1 -27 -9 -9 -9 -12 1 -12 7 0 9 -5 5 -12 -14 -22 -11 -48 5 -49 12 0 11 -3 -4
-9 -11 -5 -14 -9 -6 -9 10 -1 11 -4 2 -15 -9 -11 -9 -16 0 -21 8 -6 7 -10 -2
-16 -11 -7 -11 -9 1 -9 13 0 13 -1 0 -10 -12 -8 -12 -10 -1 -10 10 0 11 -3 2
-14 -9 -11 -9 -16 0 -21 8 -6 7 -10 -2 -16 -11 -7 -11 -9 1 -9 13 0 13 -1 0
-10 -12 -8 -12 -10 -1 -10 10 0 11 -3 2 -14 -9 -11 -9 -16 0 -21 8 -6 7 -10
-2 -16 -11 -7 -11 -9 1 -9 13 0 13 -1 0 -10 -12 -8 -12 -10 -1 -10 10 0 11 -3
2 -14 -9 -11 -9 -16 0 -21 8 -6 7 -10 -2 -16 -12 -7 -12 -9 0 -9 9 0 10 -4 5
-12 -9 -12 -10 -28 -4 -53 6 -25 4 -41 -5 -47 -6 -5 -5 -8 3 -8 9 0 10 -5 3
-18 -6 -11 -6 -24 -1 -32 6 -9 5 -17 -3 -22 -9 -6 -9 -8 1 -8 6 0 12 -5 12
-11 0 -5 -6 -7 -12 -3 -10 6 -10 5 -1 -7 10 -12 10 -18 1 -27 -9 -9 -9 -12 1
-12 7 0 9 -5 5 -12 -14 -22 -11 -48 5 -49 12 0 11 -3 -4 -9 -11 -5 -14 -9 -6
-9 10 -1 11 -4 2 -15 -9 -11 -9 -16 0 -21 8 -6 7 -10 -2 -16 -11 -7 -11 -9 1
-9 13 0 13 -1 0 -10 -12 -8 -12 -10 -1 -10 10 0 11 -3 2 -14 -9 -11 -9 -16 0
-21 8 -6 7 -10 -2 -16 -12 -7 -12 -9 0 -9 9 0 10 -4 5 -12 -9 -12 -10 -28 -4
-53 6 -25 4 -41 -5 -47 -6 -5 -5 -8 3 -8 9 0 10 -5 3 -18 -6 -11 -6 -24 -1
-32 6 -9 5 -17 -3 -22 -9 -6 -9 -8 1 -8 6 0 12 -5 12 -11 0 -5 -6 -7 -12 -3
-10 6 -10 5 -1 -7 10 -12 10 -18 1 -27 -9 -9 -9 -12 1 -12 7 0 9 -5 5 -12 -14
-22 -11 -48 5 -48 15 -1 15 -1 0 -10 -13 -8 -17 -38 -9 -60 6 -15 4 -36 -5
-42 -6 -5 -5 -8 3 -8 9 0 10 -5 3 -18 -6 -11 -6 -24 -1 -32 6 -9 5 -17 -3 -22
-9 -6 -9 -8 1 -8 6 0 12 -5 12 -11 0 -5 -6 -7 -12 -3 -10 6 -10 4 0 -8 10 -12
10 -18 1 -23 -8 -6 -7 -10 2 -16 12 -8 11 -11 -1 -19 -11 -7 -11 -10 -2 -10 7
0 11 -4 7 -9 -3 -5 -1 -12 5 -16 7 -4 7 -12 0 -26 -8 -14 -7 -19 2 -19 9 0 9
-3 -2 -10 -8 -5 -10 -10 -3 -10 6 0 9 -9 5 -22 -3 -13 -1 -19 5 -15 6 4 9 -4
7 -18 -1 -14 3 -31 9 -38 12 -12 19 -32 20 -53 0 -6 10 -9 21 -7 18 4 19 3 6
-7 -13 -10 -11 -11 7 -7 16 4 20 1 16 -11 -4 -10 -2 -13 5 -8 7 4 15 1 18 -7
3 -8 15 -14 27 -13 12 1 29 -5 37 -13 10 -9 15 -10 18 -2 3 8 9 8 23 1 10 -6
19 -8 19 -6 0 3 11 1 24 -4 13 -5 27 -6 30 -2 10 9 46 10 46 0 0 -11 23 -6 32
7 5 6 8 5 8 -2 0 -7 5 -13 11 -13 5 0 7 6 3 13 -5 9 -4 9 6 0 7 -6 19 -9 27
-6 8 3 19 0 24 -8 7 -11 9 -9 9 6 0 12 3 16 8 9 4 -6 27 -11 51 -13 25 -1 48
-4 53 -7 4 -3 8 1 8 8 0 9 3 9 10 -2 6 -9 10 -11 10 -3 0 7 7 10 15 6 9 -3 33
-6 53 -7 20 0 43 -5 51 -10 9 -6 12 -5 8 1 -4 7 16 10 58 10 35 0 62 -3 60 -7
-7 -12 29 -6 38 5 4 6 10 5 16 -4 8 -12 12 -12 25 -2 13 11 16 11 16 0 0 -11
2 -11 10 1 6 9 10 10 10 3 0 -13 38 -12 59 2 10 5 12 4 7 -3 -4 -7 -1 -12 8
-12 9 0 16 6 16 13 0 7 3 8 8 2 4 -6 22 -12 41 -14 26 -2 31 0 25 11 -6 10 -5
10 9 -1 9 -7 24 -11 32 -7 8 3 15 2 15 -2 0 -4 28 -5 61 -4 47 3 60 1 54 -9
-6 -8 -4 -10 6 -3 24 15 62 17 53 2 -5 -10 -4 -11 7 0 17 16 53 16 43 0 -6
-10 -4 -10 7 0 14 13 33 17 25 4 -2 -4 4 -8 14 -8 10 0 16 4 14 8 -3 4 -1 8 5
8 5 0 12 -6 14 -12 4 -10 6 -9 6 1 1 11 4 11 16 1 12 -10 15 -10 15 1 0 11 2
11 10 -1 9 -13 10 -13 10 0 0 13 1 13 10 0 9 -13 10 -13 10 0 0 12 2 12 9 1 6
-9 10 -10 16 -2 5 9 10 9 21 0 11 -9 18 -8 31 2 11 9 14 10 9 2 -5 -10 2 -12
26 -10 18 2 45 0 61 -4 16 -5 27 -4 27 2 0 6 6 7 13 2 15 -9 35 -15 64 -17 14
-1 18 -5 12 -12 -6 -8 -4 -11 8 -11 22 1 73 -23 73 -35 0 -4 7 -8 15 -8 8 0
15 -4 15 -10 0 -5 7 -10 15 -10 8 0 15 -4 15 -10 0 -5 7 -10 15 -10 8 0 15 -7
15 -16 0 -8 4 -13 9 -10 5 3 12 -1 15 -10 3 -8 10 -13 15 -9 5 3 12 -4 16 -15
4 -12 15 -20 28 -20 18 0 19 -2 7 -10 -13 -8 -13 -10 1 -10 9 0 20 -7 23 -16
3 -9 11 -12 18 -8 9 5 8 2 -1 -9 -12 -15 -12 -17 3 -11 9 3 16 1 16 -5 0 -6 8
-11 17 -11 9 0 14 -3 10 -6 -8 -8 25 -44 35 -38 4 3 8 -4 8 -15 0 -12 3 -20 8
-20 18 3 32 -2 32 -12 0 -6 18 -28 40 -49 22 -21 40 -43 40 -51 0 -7 3 -10 6
-6 7 6 54 -41 54 -54 0 -5 6 -8 13 -6 6 1 11 -4 10 -10 -3 -12 9 -17 29 -14 5
0 7 -2 7 -7 -1 -4 -1 -14 0 -22 1 -13 2 -13 11 0 7 11 10 12 10 2 0 -17 66
-82 74 -74 6 5 10 -15 6 -33 -1 -5 2 -7 5 -3 11 11 47 -11 39 -24 -4 -7 -3 -8
4 -4 7 4 23 -5 37 -20 14 -15 25 -24 25 -20 0 4 6 1 14 -6 8 -7 12 -16 9 -21
-2 -4 -1 -7 4 -6 21 4 34 -2 27 -13 -4 -6 -3 -8 4 -4 6 3 18 -1 26 -10 11 -10
16 -11 16 -3 0 7 9 2 20 -11 11 -13 20 -19 20 -14 0 5 7 0 15 -10 11 -14 15
-16 15 -5 1 11 3 11 13 -2 7 -9 20 -15 30 -13 9 1 17 -1 17 -5 0 -4 10 -7 22
-8 11 -1 24 -6 27 -10 3 -5 16 -8 29 -7 12 1 22 -4 22 -10 0 -6 5 -4 10 4 9
13 10 13 10 0 0 -12 2 -12 9 -2 7 11 9 11 14 -2 5 -12 12 -14 32 -6 18 7 25 6
25 -3 0 -8 4 -7 10 3 9 13 10 13 10 0 0 -13 1 -13 10 0 9 13 10 13 11 0 0 -10
3 -8 9 5 5 11 9 14 9 8 1 -7 8 -13 17 -13 9 0 12 5 8 13 -6 9 -5 9 7 0 9 -7
20 -8 29 -3 8 5 18 6 24 3 5 -3 6 -1 3 4 -6 10 27 27 46 24 4 -1 7 4 7 10 0 5
5 7 10 4 6 -3 10 -1 10 5 0 6 6 8 13 4 6 -4 9 -3 4 1 -9 10 21 45 38 45 7 0
20 10 29 22 9 13 14 16 10 8 -7 -13 -5 -13 9 -1 9 7 17 19 17 27 0 7 8 18 18
23 13 8 14 10 2 11 -13 0 -13 2 -1 9 15 10 25 121 10 121 -5 0 -8 3 -8 8 4 24
-2 72 -9 68 -4 -2 -8 3 -9 12 -3 46 -8 72 -15 72 -4 0 -8 9 -8 20 0 11 -4 20
-10 20 -5 0 -10 5 -10 11 0 5 4 8 9 5 5 -4 4 5 -2 19 -7 14 -16 25 -21 25 -5
0 -3 6 3 14 9 10 8 15 -2 19 -9 3 -13 16 -12 32 2 14 -2 28 -9 31 -7 3 -11 18
-10 34 1 17 -2 33 -7 36 -5 3 -5 13 1 23 6 12 5 22 -2 29 -9 9 -8 12 3 12 12
0 12 2 -1 10 -12 7 -12 10 -1 10 7 0 11 6 7 15 -3 8 0 15 6 15 6 0 8 3 5 7
-10 9 44 35 60 28 8 -2 11 0 8 5 -6 9 8 14 28 11 4 -1 10 6 13 14 3 8 10 13
14 10 5 -3 16 2 25 11 9 9 19 14 22 10 3 -3 16 5 27 17 12 13 27 22 33 20 6
-2 15 1 19 8 5 8 3 9 -6 4 -9 -6 -11 -4 -6 4 5 7 15 10 23 6 13 -4 13 -3 4 9
-9 11 -8 15 4 20 9 3 13 10 10 16 -3 5 -1 10 4 10 6 0 11 9 11 20 0 11 6 20
13 20 9 0 8 3 -2 9 -10 6 -10 10 -1 16 6 4 9 13 6 21 -3 8 -2 14 2 14 4 0 7
23 6 50 0 28 4 50 9 50 5 0 4 7 -3 15 -10 12 -10 15 1 15 12 0 12 2 0 9 -9 6
-10 10 -2 16 9 5 9 10 0 21 -9 11 -8 14 2 14 9 0 10 3 4 8 -12 8 -19 55 -7 48
10 -6 9 45 -1 61 -4 6 -1 14 5 16 10 4 9 6 -1 6 -11 1 -10 6 5 22 11 13 13 19
5 17 -7 -2 -15 7 -17 20 -2 13 0 21 4 18 10 -6 9 45 -1 61 -4 6 -1 14 5 16 10
4 9 6 -1 6 -11 1 -10 6 5 22 13 14 14 20 4 17 -16 -3 -20 19 -9 42 6 12 35 15
171 15 97 0 166 4 170 10 5 6 8 4 8 -5 0 -13 1 -13 10 0 6 10 10 11 10 3 0 -7
5 -13 11 -13 5 0 7 5 3 11 -4 8 0 8 15 0 14 -8 21 -8 21 -1 0 5 5 10 11 10 5
0 8 -4 5 -8 -3 -4 9 -7 27 -6 17 1 33 7 35 14 3 7 9 4 18 -7 7 -10 14 -13 14
-7 0 12 29 12 48 0 6 -4 12 -3 12 2 0 6 7 13 16 16 14 5 15 4 5 -8 -10 -12 -7
-13 24 -6 19 4 35 6 35 4 0 -3 9 0 19 6 11 5 22 6 25 1 8 -13 56 -10 56 3 0 6
4 5 9 -3 8 -13 12 -13 27 0 10 8 15 9 11 3 -6 -11 122 -11 170 0 13 2 25 0 29
-5 4 -6 11 -6 20 2 11 9 14 9 14 0 0 -8 5 -9 18 -2 10 5 23 6 30 2 10 -6 56
-6 72 -1 17 6 56 4 62 -4 4 -6 12 -5 21 2 7 7 17 9 20 5 4 -3 7 -1 7 6 0 8 5
7 16 -4 15 -14 17 -14 31 2 8 10 11 12 7 4 -5 -11 -1 -12 20 -7 18 4 26 2 26
-6 0 -10 2 -10 8 -1 4 7 20 10 39 7 17 -3 34 0 38 6 3 6 12 7 18 3 20 -13 49
-14 41 -2 -5 8 -1 8 14 0 14 -7 23 -8 27 -1 3 5 12 10 18 10 7 0 6 -4 -3 -11
-11 -7 -6 -8 19 -4 27 6 32 4 26 -6 -6 -11 -5 -12 6 -1 7 6 21 12 32 12 11 0
15 4 11 12 -4 6 3 4 17 -5 13 -9 32 -17 42 -17 11 0 15 -4 11 -12 -5 -7 -2 -9
8 -6 8 4 20 -2 26 -13 7 -10 17 -19 23 -19 6 0 17 -7 26 -15 8 -8 19 -12 25
-9 7 4 8 2 4 -4 -4 -7 -1 -12 9 -12 9 0 13 -4 10 -10 -3 -5 0 -10 7 -10 7 0
24 -13 38 -30 14 -16 29 -30 33 -30 14 0 36 -27 29 -35 -4 -5 -1 -5 6 -1 7 4
15 1 18 -8 3 -9 10 -13 15 -10 5 3 6 -2 3 -10 -4 -11 0 -16 14 -16 12 0 23 -9
27 -20 3 -11 11 -20 16 -20 6 0 17 -7 25 -15 9 -8 12 -15 8 -15 -4 0 6 -10 21
-22 41 -32 75 -68 75 -78 0 -6 3 -9 8 -7 4 1 8 -3 10 -8 2 -6 12 -13 23 -17
10 -4 19 -14 19 -23 0 -8 5 -15 10 -15 6 0 24 -14 40 -30 16 -17 34 -30 39
-30 5 0 13 -4 16 -10 3 -6 -2 -7 -12 -4 -10 3 -2 -4 18 -15 20 -11 39 -27 43
-36 3 -9 10 -13 16 -10 5 3 10 -2 10 -11 0 -10 3 -14 7 -11 3 4 16 -5 29 -18
13 -14 29 -25 37 -25 8 0 19 -10 26 -22 6 -13 9 -15 6 -5 -3 10 -1 15 5 12 6
-3 10 -12 10 -20 0 -8 8 -12 20 -10 11 2 20 -1 20 -6 0 -6 14 -15 30 -20 17
-6 30 -15 30 -21 0 -6 7 -8 15 -4 8 3 15 1 15 -5 0 -6 6 -9 12 -7 7 3 19 -1
26 -9 8 -7 18 -11 23 -7 6 3 16 0 24 -6 12 -10 15 -10 15 1 0 9 3 10 8 4 12
-17 47 -41 38 -27 -4 6 -2 12 3 12 6 0 11 -5 11 -11 0 -5 4 -8 9 -4 5 3 13 0
17 -6 4 -8 9 -7 15 2 7 11 9 11 9 1 0 -7 4 -10 10 -7 6 3 10 2 10 -4 0 -5 9
-8 20 -6 11 2 20 0 20 -5 0 -4 9 -6 20 -3 11 3 20 1 20 -5 0 -5 19 -13 43 -17
53 -10 50 -9 62 -16 6 -3 25 -5 43 -4 17 1 32 -4 32 -9 0 -6 5 -4 10 4 8 12
10 12 10 1 0 -11 3 -11 15 -1 12 10 15 10 15 -1 0 -9 3 -10 11 -2 7 7 21 8 40
3 17 -5 31 -5 35 1 3 5 9 7 14 4 5 -3 11 -1 15 4 3 6 12 8 21 4 8 -3 24 3 36
13 12 11 18 13 14 7 -4 -7 -3 -13 3 -13 5 0 13 9 16 21 6 17 9 18 23 7 10 -7
14 -8 10 -4 -4 5 2 22 14 39 12 17 16 27 8 22 -9 -5 -11 -4 -6 3 4 7 15 12 24
12 13 0 14 2 4 9 -18 11 -18 12 -3 39 8 15 8 22 1 22 -7 0 -7 7 1 21 8 16 8
20 -1 14 -9 -6 -9 -3 -1 13 8 15 7 21 -2 25 -8 3 -12 18 -11 36 1 17 -2 31 -6
31 -5 0 -7 8 -5 18 1 9 -4 28 -12 41 -12 18 -12 22 -2 15 12 -7 12 -5 1 9 -8
9 -11 21 -7 27 3 5 1 10 -5 10 -7 0 -10 7 -7 15 4 8 1 17 -4 21 -6 3 -9 15 -6
25 3 10 0 20 -6 22 -10 3 -16 21 -20 64 -1 13 -4 23 -7 23 -3 0 -7 15 -8 32
-2 18 -7 37 -12 42 -4 4 -6 14 -3 21 2 8 -1 23 -7 36 -11 20 -10 21 6 15 18
-7 18 -6 3 10 -13 12 -15 24 -9 44 5 16 6 31 2 34 -3 3 0 6 7 6 7 0 10 4 6 9
-6 10 55 78 65 73 11 -5 61 18 56 26 -3 5 6 7 21 4 18 -3 24 -1 19 6 -5 8 -2
10 8 6 9 -3 16 -1 16 6 0 6 4 9 9 5 5 -3 17 5 25 17 9 12 16 19 16 15 0 -4 12
4 26 18 23 23 30 38 33 68 1 5 5 5 11 2 6 -3 7 1 4 9 -4 10 -1 16 7 16 11 0
11 3 -1 10 -11 7 -11 10 -2 10 7 0 10 5 7 10 -3 6 -2 10 3 10 5 0 7 12 4 26
-3 16 -1 24 4 21 6 -3 10 3 10 14 0 10 -4 19 -9 19 -5 0 -5 6 0 13 6 6 10 43
9 80 -1 38 2 71 6 73 5 3 5 11 1 17 -9 15 -10 1587 -1 1581 4 -2 4 8 0 23 -4
16 -7 166 -7 336 0 178 -3 307 -8 307 -5 0 -4 7 3 15 7 8 9 15 4 15 -5 0 -10
18 -12 41 -3 54 -5 63 -15 70 -4 3 -9 16 -12 29 -2 12 -11 30 -20 40 -8 9 -15
22 -15 28 0 7 -4 12 -8 12 -5 0 -19 9 -32 20 -12 11 -27 17 -31 14 -5 -3 -9 0
-9 6 0 6 -4 9 -9 6 -5 -4 -12 0 -14 6 -4 10 -6 10 -6 0 -1 -10 -5 -10 -17 2
-8 9 -19 14 -24 11 -5 -3 -11 -2 -13 2 -3 5 -26 8 -51 8 -25 -1 -46 4 -46 10
0 5 -5 3 -10 -5 -5 -8 -10 -10 -10 -4 0 7 -18 10 -51 7 -39 -3 -49 -1 -43 9 6
10 5 10 -8 0 -13 -10 -17 -10 -21 0 -4 10 -6 10 -6 -1 -1 -11 -4 -11 -16 -1
-11 9 -15 9 -15 1 0 -7 -5 -9 -11 -5 -6 3 -34 7 -63 9 -29 1 -58 5 -64 8 -5 4
-13 1 -15 -5 -4 -10 -6 -9 -6 1 -1 11 -4 11 -16 1 -9 -8 -20 -9 -27 -4 -16 11
-39 11 -57 0 -10 -6 -12 -5 -7 2 4 7 1 12 -8 12 -9 0 -16 -6 -17 -12 0 -7 -4
-4 -9 7 -6 13 -9 15 -9 5 -1 -13 -2 -13 -11 0 -7 11 -10 11 -10 2 0 -9 -6 -10
-17 -4 -10 4 -48 8 -85 7 -41 0 -68 3 -68 10 0 5 -5 3 -10 -5 -5 -8 -10 -10
-10 -5 0 6 -11 10 -24 10 -13 0 -22 -3 -19 -7 2 -5 -1 -8 -6 -8 -6 0 -11 5
-11 12 0 9 -3 9 -11 1 -9 -9 -18 -7 -37 5 -15 10 -23 11 -19 5 5 -7 4 -13 -2
-13 -5 0 -13 5 -16 11 -5 6 -12 4 -21 -8 -9 -12 -12 -13 -9 -3 4 13 -7 15 -70
14 -53 -1 -73 2 -68 10 4 6 -1 5 -10 -3 -14 -11 -17 -11 -17 0 0 11 -2 11 -10
-1 -9 -13 -10 -13 -10 0 0 12 -2 13 -9 1 -7 -11 -9 -11 -13 0 -4 12 -8 11 -23
-1 -11 -9 -16 -10 -11 -2 4 6 3 12 -3 12 -5 0 -13 -5 -16 -10 -4 -7 -11 -7
-18 -2 -7 5 -41 10 -76 11 -36 1 -72 7 -80 14 -10 8 -12 8 -8 1 5 -8 -10 -11
-48 -9 -31 1 -58 5 -62 9 -3 3 -12 1 -20 -5 -7 -6 -13 -7 -13 -2 0 5 -14 10
-31 11 -22 2 -28 -1 -23 -10 6 -10 5 -10 -7 -1 -8 6 -29 10 -47 9 -17 -1 -32
2 -32 6 0 5 -8 4 -19 -1 -13 -7 -24 -6 -37 3 -14 10 -22 11 -36 2 -15 -9 -21
-8 -28 4 -8 12 -10 12 -10 1 0 -11 -3 -11 -15 -1 -8 7 -15 8 -15 3 0 -5 -7
-10 -15 -10 -8 0 -15 5 -15 11 0 6 -4 6 -12 -2 -6 -6 -18 -8 -27 -3 -9 4 -44
7 -78 7 -36 -1 -63 3 -63 9 0 7 -3 7 -8 0 -10 -14 -42 -15 -42 -2 0 6 -3 8 -6
4 -3 -3 -17 -2 -30 3 -13 5 -26 5 -28 1 -6 -9 -61 -6 -76 4 -5 3 -12 1 -15 -5
-4 -7 -11 -7 -18 -2 -7 5 -30 8 -52 6 -22 -1 -57 2 -77 6 -25 5 -38 4 -38 -3
0 -5 -10 -2 -22 9 -12 10 -18 14 -15 8 4 -7 0 -14 -8 -18 -8 -3 -15 -1 -15 5
0 5 -16 8 -35 6 -19 -3 -35 0 -35 6 0 5 -7 4 -15 -3 -11 -9 -15 -9 -15 -1 0 8
-5 9 -19 1 -12 -6 -22 -6 -25 -1 -7 11 -25 9 -45 -3 -11 -7 -13 -5 -7 10 6 15
5 17 -5 7 -14 -14 -33 -18 -25 -5 2 4 -4 8 -15 8 -10 0 -19 -4 -19 -8 0 -4
-10 -4 -22 0 -13 4 -39 7 -58 6 -19 0 -41 4 -47 9 -9 6 -13 6 -13 -1 0 -6 -9
-10 -20 -9 -11 1 -20 5 -20 10 0 5 -6 4 -13 -2 -8 -6 -16 -8 -20 -5 -9 10 -68
11 -73 2 -3 -5 -11 -5 -17 0 -16 13 -87 20 -87 9 0 -6 -5 -6 -12 0 -7 5 -34 8
-60 7 -27 -1 -48 1 -48 5 0 4 -7 8 -15 8 -8 0 -12 -4 -9 -9 6 -10 -10 -11 -20
-1 -12 12 -36 12 -36 0 0 -8 -3 -7 -9 1 -4 8 -12 14 -16 14 -4 0 -12 -6 -16
-14 -7 -10 -9 -10 -9 0 0 8 -12 12 -33 10 -18 -1 -37 1 -42 3 -6 3 -18 4 -28
1z"/>
</g>
</svg>
